<svg height="266pt" preserveAspectRatio="xMidYMid meet" viewBox="0 0 389 266" width="389pt" xmlns="http://www.w3.org/2000/svg"><g transform="matrix(.1 0 0 -.1 0 266)"><path d="m1637 2368c-87-179-135-339-162-540-3-27-9-48-12-48s-20 9-38 20c-45 28-155 68-239 87-102 24-372 22-481-4l-80-18 3-60c8-169 80-442 156-593 20-40 36-76 36-82 0-5-13-10-28-10-49 0-184-40-268-79-106-50-191-108-277-190l-69-66 38-65c20-36 56-90 80-120 52-68 200-212 275-268 70-53 188-107 276-128 78-18 263-22 306-5l27 11v105 105h-97c-54 0-125 6-158 13-102 21-251 117-416 266l-79 73 32 40c66 84 226 180 344 207l51 12 7 76c3 42 6 181 6 310 0 217 1 233 18 233 122 0 344-54 467-115 85-41 225-144 225-165 0-6 48-10 120-10 85 0 120 3 120 12 0 18-59 118-107 180-24 31-76 87-117 124l-73 68 62 100c94 152 195 310 203 318 11 11 142-93 211-168 150-164 241-361 258-561l6-73h89c86 0 89 1 98 26 12 31 12 262 0 324-4 25-6 47-4 49 4 4 434 121 445 121 14 0 39-178 39-271 0-209-64-418-179-589-29-43-31-50-31-142 0-54 3-98 6-98 4 0 38 21 78 47 88 59 199 168 255 250 23 35 47 63 54 63 6 0 96-28 200-62l189-63-5-39c-3-22-24-78-48-124-53-109-136-193-240-245-115-57-182-71-346-72h-143v-146c0-174-16-159 171-159 234 0 416 68 560 210 97 95 191 239 226 345 55 168 29 335-58 378-56 27-172 46-332 53l-145 7 23 68c63 184 56 399-21 627-31 92-104 252-115 252-21 0-165-58-254-102-100-50-238-135-306-189-45-36-55-36-63-3-7 28-46 116-55 124-4 3-24 32-45 65-80 122-230 247-396 330-74 37-192 85-210 85-5 0-33-51-63-112z"/><path d="m2408 2430c-20-11-50-36-65-57-25-33-28-44-28-114 0-71 2-80 31-116 46-56 89-78 154-78 128 1 221 117 190 237-25 92-98 148-192 148-33-1-67-8-90-20z"/><path d="m1205 2342c-52-24-91-71-106-125-43-160 126-299 277-227 130 64 143 253 21 337-51 36-134 42-192 15z"/><path d="m3407 1655c-83-29-132-105-125-196 8-108 83-179 188-179 65 0 108 18 147 63 85 97 57 244-59 301-58 29-95 32-151 11z"/><path d="m352 1503c-143-70-142-283 2-353 67-32 151-26 203 16 111 90 97 266-26 331-53 27-130 30-179 6z"/></g></svg>